<svg width="121" height="123" viewBox="0 0 121 123" fill="none" xmlns="http://www.w3.org/2000/svg">
<path d="M21.3776 25.6561C17.3684 30.034 12.2767 35.0104 10.0212 36.6452C2.07552 42.1739 2.37784 42.9213 12.4708 44.6857C16.3611 45.3064 22.2862 47.3518 26.0532 49.4539C30.6511 51.9559 33.0147 52.6723 33.5112 51.8159C34.5751 49.9807 28.9666 46.4023 20.7746 43.6148C14.1668 41.3371 14.0188 41.1695 16.2805 39.9469C20.1531 37.7784 33.9006 35.7766 40.0455 36.3148C55.4722 37.902 66.0038 49.4836 81.1872 81.6616C84.4941 88.6462 87.5439 94.6644 87.9624 95.0705C89.6363 96.6947 90.5326 95.0076 92.141 87.4396C94.1244 77.392 97.388 70.2115 100.894 67.8302C103.271 66.2662 103.877 66.2086 106.569 67.769C110.851 70.2515 113.582 80.9075 112.289 90.0473C110.924 99.3095 110.962 100.231 112.605 99.7936C114.634 99.2537 116.329 87.7307 115.631 80.0519C115.176 75.6199 114.405 72.7207 112.886 70.1239C110.422 65.9161 105.251 62.4282 102.449 63.1738C97.7134 64.4336 92.9231 71.7098 89.9281 82.2336L88.1079 88.6161L84.6467 81.0517C79.1978 68.7387 70.5298 53.6604 65.393 47.5766C62.4061 44.1286 57.764 40.2931 53.5784 37.7849C44.9883 32.7233 37.9417 31.9076 25.0507 34.4058L15.909 36.2171L22.1161 29.5987C30.2569 20.9138 31.2756 19.2976 30.1939 18.3436C29.7498 17.8409 29.138 17.4862 28.9447 17.5377C28.6548 17.6148 25.2902 21.3038 21.3776 25.6561Z" fill="#9D2035"/>
</svg>
